<?xml version="1.0" encoding="UTF-8"?>
<svg xmlns="http://www.w3.org/2000/svg" width="1600" height="900" viewBox="0 0 1600 900">
  <defs>
    <filter id="shadow" x="-20%" y="-20%" width="140%" height="140%">
      <feDropShadow dx="0" dy="10" stdDeviation="12" flood-color="#6b5840" flood-opacity="0.18"/>
    </filter>
    <pattern id="dots" width="34" height="34" patternUnits="userSpaceOnUse">
      <circle cx="5" cy="5" r="2" fill="#d8c49f" opacity="0.35"/>
    </pattern>
  </defs>
  <rect width="1600" height="900" fill="#fbf3e5"/>
  <rect width="1600" height="900" fill="url(#dots)" opacity="0.42"/>
  <text x="92" y="92" font-size="48" font-weight="950" fill="#2d241b">第0章：費用の考え方</text>
  <text x="96" y="136" font-size="24" font-weight="700" fill="#6f6254">月額だけでなく、従量課金と上限設定も確認する</text>
  <line x1="92" y1="164" x2="1508" y2="164" stroke="#d9c6a8" stroke-width="4"/>
  
      
  <rect x="110" y="230" width="420" height="230" rx="18" fill="#fffaf0" stroke="#d9c6a8" stroke-width="3"/>
  <rect x="110" y="230" width="12" height="230" rx="6" fill="#5f7f56"/>
  <text x="142" y="274" font-size="26" font-weight="900" fill="#2d241b">月額プラン</text>
  <text x="142" y="318" font-size="22" font-weight="650" fill="#6f6254">ChatGPT / Claude</text>
<text x="142" y="352" font-size="22" font-weight="650" fill="#6f6254">月20ドル前後が目安</text>
<text x="142" y="386" font-size="22" font-weight="650" fill="#6f6254">無料枠は制限が早い</text>
      
  <rect x="590" y="230" width="420" height="230" rx="18" fill="#fffaf0" stroke="#d9c6a8" stroke-width="3"/>
  <rect x="590" y="230" width="12" height="230" rx="6" fill="#a94438"/>
  <text x="622" y="274" font-size="26" font-weight="900" fill="#2d241b">従量課金に注意</text>
  <text x="622" y="318" font-size="22" font-weight="650" fill="#6f6254">APIキー</text>
<text x="622" y="352" font-size="22" font-weight="650" fill="#6f6254">エージェント機能</text>
<text x="622" y="386" font-size="22" font-weight="650" fill="#6f6254">外部サービス連携</text>
      
  <rect x="1070" y="230" width="420" height="230" rx="18" fill="#fffaf0" stroke="#d9c6a8" stroke-width="3"/>
  <rect x="1070" y="230" width="12" height="230" rx="6" fill="#4d7188"/>
  <text x="1102" y="274" font-size="26" font-weight="900" fill="#2d241b">最初に確認</text>
  <text x="1102" y="318" font-size="22" font-weight="650" fill="#6f6254">料金画面</text>
<text x="1102" y="352" font-size="22" font-weight="650" fill="#6f6254">利用上限</text>
<text x="1102" y="386" font-size="22" font-weight="650" fill="#6f6254">予算上限</text>
      
  <rect x="260" y="590" width="1080" height="56" rx="28" fill="#c39a54"/>
  <text x="800" y="627" text-anchor="middle" font-size="24" font-weight="800" fill="#fff">いきなり大量処理せず、小さい作業から試す</text>
    
</svg>