<?xml version="1.0" encoding="UTF-8"?>
<svg xmlns="http://www.w3.org/2000/svg" width="1600" height="900" viewBox="0 0 1600 900">
  <defs>
    <filter id="shadow" x="-20%" y="-20%" width="140%" height="140%">
      <feDropShadow dx="0" dy="10" stdDeviation="12" flood-color="#6b5840" flood-opacity="0.18"/>
    </filter>
    <pattern id="dots" width="34" height="34" patternUnits="userSpaceOnUse">
      <circle cx="5" cy="5" r="2" fill="#d8c49f" opacity="0.35"/>
    </pattern>
  </defs>
  <rect width="1600" height="900" fill="#fbf3e5"/>
  <rect width="1600" height="900" fill="url(#dots)" opacity="0.42"/>
  <text x="92" y="92" font-size="48" font-weight="950" fill="#2d241b">第2章：4フェーズの型</text>
  <text x="96" y="136" font-size="24" font-weight="700" fill="#6f6254">一発完成ではなく、小さく作って直す</text>
  <line x1="92" y1="164" x2="1508" y2="164" stroke="#d9c6a8" stroke-width="4"/>
  
      
  <rect x="95" y="235" width="310" height="220" rx="18" fill="#fffaf0" stroke="#d9c6a8" stroke-width="3"/>
  <rect x="95" y="235" width="12" height="220" rx="6" fill="#4d7188"/>
  <text x="127" y="279" font-size="26" font-weight="900" fill="#2d241b">Phase 1</text>
  <text x="127" y="323" font-size="22" font-weight="650" fill="#6f6254">録画する</text>
<text x="127" y="357" font-size="22" font-weight="650" fill="#6f6254">作業を分解</text>
<text x="127" y="391" font-size="22" font-weight="650" fill="#6f6254">最小版を決める</text>
      
  <line x1="425" y1="345" x2="500" y2="345" stroke="#c39a54" stroke-width="6" stroke-linecap="round"/>
  <polygon points="500,345 482,334 482,356" fill="#c39a54"/>
      
  <rect x="515" y="235" width="310" height="220" rx="18" fill="#fffaf0" stroke="#d9c6a8" stroke-width="3"/>
  <rect x="515" y="235" width="12" height="220" rx="6" fill="#5f7f56"/>
  <text x="547" y="279" font-size="26" font-weight="900" fill="#2d241b">Phase 2</text>
  <text x="547" y="323" font-size="22" font-weight="650" fill="#6f6254">コード作成</text>
<text x="547" y="357" font-size="22" font-weight="650" fill="#6f6254">.env</text>
<text x="547" y="391" font-size="22" font-weight="650" fill="#6f6254">見えるブラウザ</text>
      
  <line x1="845" y1="345" x2="920" y2="345" stroke="#c39a54" stroke-width="6" stroke-linecap="round"/>
  <polygon points="920,345 902,334 902,356" fill="#c39a54"/>
      
  <rect x="935" y="235" width="310" height="220" rx="18" fill="#fffaf0" stroke="#d9c6a8" stroke-width="3"/>
  <rect x="935" y="235" width="12" height="220" rx="6" fill="#c39a54"/>
  <text x="967" y="279" font-size="26" font-weight="900" fill="#2d241b">Phase 3</text>
  <text x="967" y="323" font-size="22" font-weight="650" fill="#6f6254">動かす</text>
<text x="967" y="357" font-size="22" font-weight="650" fill="#6f6254">止まる</text>
<text x="967" y="391" font-size="22" font-weight="650" fill="#6f6254">材料を渡す</text>
      
  <line x1="1265" y1="345" x2="1340" y2="345" stroke="#c39a54" stroke-width="6" stroke-linecap="round"/>
  <polygon points="1340,345 1322,334 1322,356" fill="#c39a54"/>
      
  <rect x="1355" y="235" width="170" height="220" rx="18" fill="#fffaf0" stroke="#d9c6a8" stroke-width="3"/>
  <rect x="1355" y="235" width="12" height="220" rx="6" fill="#a94438"/>
  <text x="1387" y="279" font-size="26" font-weight="900" fill="#2d241b">Phase 4</text>
  <text x="1387" y="323" font-size="22" font-weight="650" fill="#6f6254">戻れる</text>
<text x="1387" y="357" font-size="22" font-weight="650" fill="#6f6254">ログ</text>
<text x="1387" y="391" font-size="22" font-weight="650" fill="#6f6254">再開</text>
      
  <rect x="245" y="600" width="1110" height="56" rx="28" fill="#5f7f56"/>
  <text x="800" y="637" text-anchor="middle" font-size="24" font-weight="800" fill="#fff">応用：固定 → 条件分岐 → AI判断</text>
    
</svg>