<?xml version="1.0" encoding="UTF-8"?>
<svg xmlns="http://www.w3.org/2000/svg" width="1600" height="900" viewBox="0 0 1600 900">
  <defs>
    <filter id="shadow" x="-20%" y="-20%" width="140%" height="140%">
      <feDropShadow dx="0" dy="10" stdDeviation="12" flood-color="#6b5840" flood-opacity="0.18"/>
    </filter>
    <pattern id="dots" width="34" height="34" patternUnits="userSpaceOnUse">
      <circle cx="5" cy="5" r="2" fill="#d8c49f" opacity="0.35"/>
    </pattern>
  </defs>
  <rect width="1600" height="900" fill="#fbf3e5"/>
  <rect width="1600" height="900" fill="url(#dots)" opacity="0.42"/>
  <text x="92" y="92" font-size="48" font-weight="950" fill="#2d241b">第5章：実例から見る型</text>
  <text x="96" y="136" font-size="24" font-weight="700" fill="#6f6254">おてつたびも音声配信も、同じ流れで作る</text>
  <line x1="92" y1="164" x2="1508" y2="164" stroke="#d9c6a8" stroke-width="4"/>
  
      
  <rect x="110" y="230" width="360" height="300" rx="18" fill="#fffaf0" stroke="#d9c6a8" stroke-width="3"/>
  <rect x="110" y="230" width="12" height="300" rx="6" fill="#a94438"/>
  <text x="142" y="274" font-size="26" font-weight="900" fill="#2d241b">自動化前</text>
  <text x="142" y="318" font-size="22" font-weight="650" fill="#6f6254">毎回30分以上</text>
<text x="142" y="352" font-size="22" font-weight="650" fill="#6f6254">入力項目が多い</text>
<text x="142" y="386" font-size="22" font-weight="650" fill="#6f6254">人間が全部操作</text>
      
  <line x1="495" y1="380" x2="580" y2="380" stroke="#c39a54" stroke-width="6" stroke-linecap="round"/>
  <polygon points="580,380 562,369 562,391" fill="#c39a54"/>
      
  <rect x="610" y="230" width="360" height="300" rx="18" fill="#fffaf0" stroke="#d9c6a8" stroke-width="3"/>
  <rect x="610" y="230" width="12" height="300" rx="6" fill="#4d7188"/>
  <text x="642" y="274" font-size="26" font-weight="900" fill="#2d241b">作った順番</text>
  <text x="642" y="318" font-size="22" font-weight="650" fill="#6f6254">録画</text>
<text x="642" y="352" font-size="22" font-weight="650" fill="#6f6254">AIに分解</text>
<text x="642" y="386" font-size="22" font-weight="650" fill="#6f6254">小さく実装</text>
<text x="642" y="420" font-size="22" font-weight="650" fill="#6f6254">詰まりを直す</text>
      
  <line x1="995" y1="380" x2="1080" y2="380" stroke="#c39a54" stroke-width="6" stroke-linecap="round"/>
  <polygon points="1080,380 1062,369 1062,391" fill="#c39a54"/>
      
  <rect x="1110" y="230" width="360" height="300" rx="18" fill="#fffaf0" stroke="#d9c6a8" stroke-width="3"/>
  <rect x="1110" y="230" width="12" height="300" rx="6" fill="#5f7f56"/>
  <text x="1142" y="274" font-size="26" font-weight="900" fill="#2d241b">使える形</text>
  <text x="1142" y="318" font-size="22" font-weight="650" fill="#6f6254">途中再開</text>
<text x="1142" y="352" font-size="22" font-weight="650" fill="#6f6254">ログ保存</text>
<text x="1142" y="386" font-size="22" font-weight="650" fill="#6f6254">人間確認を残す</text>
      
  <rect x="300" y="650" width="1000" height="56" rx="28" fill="#c39a54"/>
  <text x="800" y="687" text-anchor="middle" font-size="24" font-weight="800" fill="#fff">違う業務でも、型は同じ</text>
    
</svg>